<mxfile host="app.diagrams.net" agent="Mozilla/5.0 (Windows NT 10.0; Win64; x64; rv:135.0) Gecko/20100101 Firefox/135.0" version="26.0.16">
  <diagram name="Page-1" id="e7e014a7-5840-1c2e-5031-d8a46d1fe8dd">
    <mxGraphModel dx="1434" dy="746" grid="1" gridSize="10" guides="1" tooltips="1" connect="1" arrows="1" fold="1" page="1" pageScale="1" pageWidth="1169" pageHeight="826" background="none" math="0" shadow="0">
      <root>
        <mxCell id="0" />
        <mxCell id="1" parent="0" />
        <mxCell id="2" value="Startup/Chat" style="swimlane;whiteSpace=wrap" parent="1" vertex="1">
          <mxGeometry x="120" y="110" width="840" height="1450" as="geometry" />
        </mxCell>
        <mxCell id="5" value="" style="ellipse;shape=startState;fillColor=#000000;strokeColor=#ff0000;" parent="2" vertex="1">
          <mxGeometry x="100" y="40" width="30" height="30" as="geometry" />
        </mxCell>
        <mxCell id="6" value="" style="edgeStyle=elbowEdgeStyle;elbow=horizontal;verticalAlign=bottom;endArrow=open;endSize=8;strokeColor=#FF0000;endFill=1;rounded=0" parent="2" source="5" target="7" edge="1">
          <mxGeometry x="100" y="40" as="geometry">
            <mxPoint x="115" y="110" as="targetPoint" />
          </mxGeometry>
        </mxCell>
        <mxCell id="7" value="Show login page" style="" parent="2" vertex="1">
          <mxGeometry x="60" y="110" width="110" height="50" as="geometry" />
        </mxCell>
        <mxCell id="8" value="Select team" style="" parent="2" vertex="1">
          <mxGeometry x="60" y="300" width="110" height="50" as="geometry" />
        </mxCell>
        <mxCell id="9" value="" style="endArrow=open;strokeColor=#FF0000;endFill=1;rounded=0" parent="2" source="fmrXJPgdN7vuYu7WS9ce-42" target="8" edge="1">
          <mxGeometry relative="1" as="geometry" />
        </mxCell>
        <mxCell id="fmrXJPgdN7vuYu7WS9ce-47" value="Yes" style="edgeLabel;html=1;align=center;verticalAlign=middle;resizable=0;points=[];fontFamily=Helvetica;fontSize=11;fontColor=default;labelBackgroundColor=default;" vertex="1" connectable="0" parent="9">
          <mxGeometry x="-0.1" y="2" relative="1" as="geometry">
            <mxPoint as="offset" />
          </mxGeometry>
        </mxCell>
        <mxCell id="10" value="Show selected&#xa;team&#39;s calendar" style="" parent="2" vertex="1">
          <mxGeometry x="60" y="440" width="110" height="50" as="geometry" />
        </mxCell>
        <mxCell id="11" value="" style="endArrow=open;strokeColor=#FF0000;endFill=1;rounded=0" parent="2" source="fmrXJPgdN7vuYu7WS9ce-50" target="10" edge="1">
          <mxGeometry relative="1" as="geometry" />
        </mxCell>
        <mxCell id="38" value="" style="ellipse;shape=endState;fillColor=#000000;strokeColor=#ff0000" parent="2" vertex="1">
          <mxGeometry x="360" y="1400" width="30" height="30" as="geometry" />
        </mxCell>
        <mxCell id="fmrXJPgdN7vuYu7WS9ce-41" value="" style="endArrow=open;strokeColor=#FF0000;endFill=1;rounded=0" edge="1" parent="2" source="7" target="fmrXJPgdN7vuYu7WS9ce-42">
          <mxGeometry relative="1" as="geometry">
            <mxPoint x="275" y="240" as="sourcePoint" />
            <mxPoint x="275" y="315" as="targetPoint" />
          </mxGeometry>
        </mxCell>
        <mxCell id="fmrXJPgdN7vuYu7WS9ce-43" style="edgeStyle=none;shape=connector;rounded=0;orthogonalLoop=1;jettySize=auto;html=1;exitX=1;exitY=0.5;exitDx=0;exitDy=0;strokeColor=#FF0000;align=center;verticalAlign=middle;fontFamily=Helvetica;fontSize=11;fontColor=default;labelBackgroundColor=default;endArrow=open;endFill=1;" edge="1" parent="2" source="fmrXJPgdN7vuYu7WS9ce-42" target="fmrXJPgdN7vuYu7WS9ce-45">
          <mxGeometry relative="1" as="geometry">
            <mxPoint x="230" y="220" as="targetPoint" />
          </mxGeometry>
        </mxCell>
        <mxCell id="fmrXJPgdN7vuYu7WS9ce-48" value="No" style="edgeLabel;html=1;align=center;verticalAlign=middle;resizable=0;points=[];fontFamily=Helvetica;fontSize=11;fontColor=default;labelBackgroundColor=default;" vertex="1" connectable="0" parent="fmrXJPgdN7vuYu7WS9ce-43">
          <mxGeometry x="0.1636" y="1" relative="1" as="geometry">
            <mxPoint as="offset" />
          </mxGeometry>
        </mxCell>
        <mxCell id="fmrXJPgdN7vuYu7WS9ce-42" value="&lt;div&gt;Correct&lt;/div&gt;&lt;div&gt;login?&lt;/div&gt;" style="rhombus;whiteSpace=wrap;html=1;" vertex="1" parent="2">
          <mxGeometry x="75" y="180" width="80" height="80" as="geometry" />
        </mxCell>
        <mxCell id="fmrXJPgdN7vuYu7WS9ce-46" style="edgeStyle=none;shape=connector;rounded=0;orthogonalLoop=1;jettySize=auto;html=1;exitX=0.5;exitY=0;exitDx=0;exitDy=0;entryX=1;entryY=0.5;entryDx=0;entryDy=0;strokeColor=#FF0000;align=center;verticalAlign=middle;fontFamily=Helvetica;fontSize=11;fontColor=default;labelBackgroundColor=default;endArrow=open;endFill=1;" edge="1" parent="2" source="fmrXJPgdN7vuYu7WS9ce-45" target="7">
          <mxGeometry relative="1" as="geometry">
            <Array as="points">
              <mxPoint x="260" y="135" />
            </Array>
          </mxGeometry>
        </mxCell>
        <mxCell id="fmrXJPgdN7vuYu7WS9ce-45" value="&lt;div&gt;Ask user to re-enter&lt;/div&gt;&lt;div&gt;login info&lt;/div&gt;" style="html=1;dashed=0;whiteSpace=wrap;fontFamily=Helvetica;fontSize=11;fontColor=default;labelBackgroundColor=default;" vertex="1" parent="2">
          <mxGeometry x="210" y="195" width="100" height="50" as="geometry" />
        </mxCell>
        <mxCell id="fmrXJPgdN7vuYu7WS9ce-49" value="" style="endArrow=open;strokeColor=#FF0000;endFill=1;rounded=0" edge="1" parent="2" source="8" target="fmrXJPgdN7vuYu7WS9ce-50">
          <mxGeometry relative="1" as="geometry">
            <mxPoint x="255" y="420" as="sourcePoint" />
            <mxPoint x="255" y="530" as="targetPoint" />
          </mxGeometry>
        </mxCell>
        <mxCell id="fmrXJPgdN7vuYu7WS9ce-50" value="&lt;div&gt;Pull team&lt;/div&gt;&lt;div&gt;calendar data from&lt;/div&gt;&lt;div&gt;backend&lt;/div&gt;" style="html=1;dashed=0;whiteSpace=wrap;fontFamily=Helvetica;fontSize=11;fontColor=default;labelBackgroundColor=default;" vertex="1" parent="2">
          <mxGeometry x="65" y="360" width="100" height="50" as="geometry" />
        </mxCell>
        <mxCell id="fmrXJPgdN7vuYu7WS9ce-51" value="" style="endArrow=open;strokeColor=#FF0000;endFill=1;rounded=0;exitX=0.5;exitY=1;exitDx=0;exitDy=0;" edge="1" parent="2" source="10" target="fmrXJPgdN7vuYu7WS9ce-52">
          <mxGeometry relative="1" as="geometry">
            <mxPoint x="255" y="560" as="sourcePoint" />
            <mxPoint x="255" y="710" as="targetPoint" />
          </mxGeometry>
        </mxCell>
        <mxCell id="fmrXJPgdN7vuYu7WS9ce-52" value="&lt;div&gt;User selects&lt;/div&gt;&lt;div&gt;event&lt;/div&gt;" style="html=1;dashed=0;whiteSpace=wrap;fontFamily=Helvetica;fontSize=11;fontColor=default;labelBackgroundColor=default;" vertex="1" parent="2">
          <mxGeometry x="65" y="520" width="100" height="50" as="geometry" />
        </mxCell>
        <mxCell id="fmrXJPgdN7vuYu7WS9ce-53" value="" style="endArrow=open;strokeColor=#FF0000;endFill=1;rounded=0;exitX=0.5;exitY=1;exitDx=0;exitDy=0;entryX=0.5;entryY=0;entryDx=0;entryDy=0;" edge="1" parent="2" source="fmrXJPgdN7vuYu7WS9ce-52" target="fmrXJPgdN7vuYu7WS9ce-54">
          <mxGeometry relative="1" as="geometry">
            <mxPoint x="255" y="640" as="sourcePoint" />
            <mxPoint x="115" y="580" as="targetPoint" />
          </mxGeometry>
        </mxCell>
        <mxCell id="fmrXJPgdN7vuYu7WS9ce-64" style="edgeStyle=orthogonalEdgeStyle;shape=connector;rounded=0;orthogonalLoop=1;jettySize=auto;html=1;exitX=1;exitY=0.5;exitDx=0;exitDy=0;entryX=0;entryY=0.5;entryDx=0;entryDy=0;strokeColor=#FF0000;align=center;verticalAlign=middle;fontFamily=Helvetica;fontSize=11;fontColor=default;labelBackgroundColor=default;endArrow=open;endFill=1;" edge="1" parent="2" target="fmrXJPgdN7vuYu7WS9ce-63">
          <mxGeometry relative="1" as="geometry">
            <mxPoint x="340" y="560" as="sourcePoint" />
          </mxGeometry>
        </mxCell>
        <mxCell id="fmrXJPgdN7vuYu7WS9ce-71" value="Yes" style="edgeLabel;html=1;align=center;verticalAlign=middle;resizable=0;points=[];fontFamily=Helvetica;fontSize=11;fontColor=default;labelBackgroundColor=default;" vertex="1" connectable="0" parent="fmrXJPgdN7vuYu7WS9ce-64">
          <mxGeometry y="2" relative="1" as="geometry">
            <mxPoint as="offset" />
          </mxGeometry>
        </mxCell>
        <mxCell id="fmrXJPgdN7vuYu7WS9ce-54" value="&lt;div&gt;&lt;font style=&quot;font-size: 9px;&quot;&gt;Does user&lt;/font&gt;&lt;/div&gt;&lt;div&gt;&lt;font style=&quot;font-size: 9px;&quot;&gt;have edit permissions for event?&lt;/font&gt;&lt;/div&gt;" style="rhombus;whiteSpace=wrap;html=1;fontFamily=Helvetica;fontSize=11;fontColor=default;labelBackgroundColor=default;" vertex="1" parent="2">
          <mxGeometry x="70" y="580" width="90" height="90" as="geometry" />
        </mxCell>
        <mxCell id="fmrXJPgdN7vuYu7WS9ce-73" style="edgeStyle=orthogonalEdgeStyle;shape=connector;rounded=0;orthogonalLoop=1;jettySize=auto;html=1;exitX=0.5;exitY=1;exitDx=0;exitDy=0;entryX=1;entryY=0.5;entryDx=0;entryDy=0;strokeColor=#FF0000;align=center;verticalAlign=middle;fontFamily=Helvetica;fontSize=11;fontColor=default;labelBackgroundColor=default;endArrow=open;endFill=1;" edge="1" parent="2" source="fmrXJPgdN7vuYu7WS9ce-63" target="fmrXJPgdN7vuYu7WS9ce-67">
          <mxGeometry relative="1" as="geometry" />
        </mxCell>
        <mxCell id="fmrXJPgdN7vuYu7WS9ce-63" value="Edit event details" style="html=1;dashed=0;whiteSpace=wrap;fontFamily=Helvetica;fontSize=11;fontColor=default;labelBackgroundColor=default;" vertex="1" parent="2">
          <mxGeometry x="370" y="535" width="100" height="50" as="geometry" />
        </mxCell>
        <mxCell id="fmrXJPgdN7vuYu7WS9ce-65" value="" style="endArrow=open;strokeColor=#FF0000;endFill=1;rounded=0;exitX=0.5;exitY=1;exitDx=0;exitDy=0;" edge="1" parent="2" source="fmrXJPgdN7vuYu7WS9ce-54" target="fmrXJPgdN7vuYu7WS9ce-67">
          <mxGeometry relative="1" as="geometry">
            <mxPoint x="255" y="760" as="sourcePoint" />
            <mxPoint x="255" y="900" as="targetPoint" />
            <Array as="points">
              <mxPoint x="115" y="720" />
            </Array>
          </mxGeometry>
        </mxCell>
        <mxCell id="fmrXJPgdN7vuYu7WS9ce-66" value="No" style="edgeLabel;html=1;align=center;verticalAlign=middle;resizable=0;points=[];fontFamily=Helvetica;fontSize=11;fontColor=default;labelBackgroundColor=default;" vertex="1" connectable="0" parent="fmrXJPgdN7vuYu7WS9ce-65">
          <mxGeometry x="-0.2" y="-1" relative="1" as="geometry">
            <mxPoint as="offset" />
          </mxGeometry>
        </mxCell>
        <mxCell id="fmrXJPgdN7vuYu7WS9ce-67" value="Open event chat channel" style="html=1;dashed=0;whiteSpace=wrap;fontFamily=Helvetica;fontSize=11;fontColor=default;labelBackgroundColor=default;" vertex="1" parent="2">
          <mxGeometry x="360" y="690" width="100" height="50" as="geometry" />
        </mxCell>
        <mxCell id="fmrXJPgdN7vuYu7WS9ce-68" value="" style="edgeStyle=orthogonalEdgeStyle;shape=connector;rounded=0;orthogonalLoop=1;jettySize=auto;html=1;exitX=1;exitY=0.5;exitDx=0;exitDy=0;entryX=0;entryY=0.5;entryDx=0;entryDy=0;strokeColor=#FF0000;align=center;verticalAlign=middle;fontFamily=Helvetica;fontSize=11;fontColor=default;labelBackgroundColor=default;endArrow=open;endFill=1;" edge="1" parent="2" target="fmrXJPgdN7vuYu7WS9ce-69">
          <mxGeometry relative="1" as="geometry">
            <mxPoint x="160" y="625" as="sourcePoint" />
            <mxPoint x="320" y="625" as="targetPoint" />
          </mxGeometry>
        </mxCell>
        <mxCell id="fmrXJPgdN7vuYu7WS9ce-70" value="Yes" style="edgeLabel;html=1;align=center;verticalAlign=middle;resizable=0;points=[];fontFamily=Helvetica;fontSize=11;fontColor=default;labelBackgroundColor=default;" vertex="1" connectable="0" parent="fmrXJPgdN7vuYu7WS9ce-68">
          <mxGeometry x="-0.0286" y="1" relative="1" as="geometry">
            <mxPoint as="offset" />
          </mxGeometry>
        </mxCell>
        <mxCell id="fmrXJPgdN7vuYu7WS9ce-72" style="edgeStyle=orthogonalEdgeStyle;shape=connector;rounded=0;orthogonalLoop=1;jettySize=auto;html=1;exitX=0.5;exitY=1;exitDx=0;exitDy=0;entryX=0.5;entryY=0;entryDx=0;entryDy=0;strokeColor=#FF0000;align=center;verticalAlign=middle;fontFamily=Helvetica;fontSize=11;fontColor=default;labelBackgroundColor=default;endArrow=open;endFill=1;" edge="1" parent="2" source="fmrXJPgdN7vuYu7WS9ce-69" target="fmrXJPgdN7vuYu7WS9ce-67">
          <mxGeometry relative="1" as="geometry">
            <Array as="points">
              <mxPoint x="300" y="660" />
              <mxPoint x="410" y="660" />
            </Array>
          </mxGeometry>
        </mxCell>
        <mxCell id="fmrXJPgdN7vuYu7WS9ce-74" value="No" style="edgeLabel;html=1;align=center;verticalAlign=middle;resizable=0;points=[];fontFamily=Helvetica;fontSize=11;fontColor=default;labelBackgroundColor=default;" vertex="1" connectable="0" parent="fmrXJPgdN7vuYu7WS9ce-72">
          <mxGeometry x="-0.5882" y="-2" relative="1" as="geometry">
            <mxPoint as="offset" />
          </mxGeometry>
        </mxCell>
        <mxCell id="fmrXJPgdN7vuYu7WS9ce-69" value="Edit event?" style="rhombus;whiteSpace=wrap;html=1;fontFamily=Helvetica;fontSize=11;fontColor=default;labelBackgroundColor=default;" vertex="1" parent="2">
          <mxGeometry x="260" y="520" width="80" height="80" as="geometry" />
        </mxCell>
        <mxCell id="fmrXJPgdN7vuYu7WS9ce-75" value="" style="endArrow=open;strokeColor=#FF0000;endFill=1;rounded=0;exitX=0.5;exitY=1;exitDx=0;exitDy=0;entryX=0.5;entryY=0;entryDx=0;entryDy=0;" edge="1" parent="2" source="fmrXJPgdN7vuYu7WS9ce-67" target="fmrXJPgdN7vuYu7WS9ce-76">
          <mxGeometry relative="1" as="geometry">
            <mxPoint x="515" y="830" as="sourcePoint" />
            <mxPoint x="515" y="915" as="targetPoint" />
          </mxGeometry>
        </mxCell>
        <mxCell id="fmrXJPgdN7vuYu7WS9ce-107" style="edgeStyle=orthogonalEdgeStyle;shape=connector;rounded=0;orthogonalLoop=1;jettySize=auto;html=1;exitX=0;exitY=0.5;exitDx=0;exitDy=0;strokeColor=#FF0000;align=center;verticalAlign=middle;fontFamily=Helvetica;fontSize=11;fontColor=default;labelBackgroundColor=default;endArrow=open;endFill=1;exitPerimeter=0;entryX=1;entryY=0.5;entryDx=0;entryDy=0;" edge="1" parent="2" source="fmrXJPgdN7vuYu7WS9ce-113" target="fmrXJPgdN7vuYu7WS9ce-130">
          <mxGeometry relative="1" as="geometry">
            <mxPoint x="300" y="875" as="targetPoint" />
            <Array as="points">
              <mxPoint x="320" y="840" />
              <mxPoint x="320" y="885" />
            </Array>
          </mxGeometry>
        </mxCell>
        <mxCell id="fmrXJPgdN7vuYu7WS9ce-76" value="&lt;div&gt;Pull messages from&lt;/div&gt;&lt;div&gt;backend&lt;/div&gt;" style="html=1;dashed=0;whiteSpace=wrap;fontFamily=Helvetica;fontSize=11;fontColor=default;labelBackgroundColor=default;" vertex="1" parent="2">
          <mxGeometry x="325" y="775" width="100" height="50" as="geometry" />
        </mxCell>
        <mxCell id="fmrXJPgdN7vuYu7WS9ce-166" style="edgeStyle=orthogonalEdgeStyle;shape=connector;rounded=0;orthogonalLoop=1;jettySize=auto;html=1;exitX=0.5;exitY=1;exitDx=0;exitDy=0;entryX=0.5;entryY=0;entryDx=0;entryDy=0;strokeColor=#FF0000;align=center;verticalAlign=middle;fontFamily=Helvetica;fontSize=11;fontColor=default;labelBackgroundColor=default;endArrow=open;endFill=1;" edge="1" parent="2" source="fmrXJPgdN7vuYu7WS9ce-84" target="fmrXJPgdN7vuYu7WS9ce-165">
          <mxGeometry relative="1" as="geometry" />
        </mxCell>
        <mxCell id="fmrXJPgdN7vuYu7WS9ce-84" value="Update database" style="html=1;dashed=0;whiteSpace=wrap;fontFamily=Helvetica;fontSize=11;fontColor=default;labelBackgroundColor=default;" vertex="1" parent="2">
          <mxGeometry x="325" y="1240" width="100" height="50" as="geometry" />
        </mxCell>
        <mxCell id="fmrXJPgdN7vuYu7WS9ce-124" style="edgeStyle=orthogonalEdgeStyle;shape=connector;rounded=0;orthogonalLoop=1;jettySize=auto;html=1;exitX=0.5;exitY=1;exitDx=0;exitDy=0;entryX=0.5;entryY=0;entryDx=0;entryDy=0;strokeColor=#FF0000;align=center;verticalAlign=middle;fontFamily=Helvetica;fontSize=11;fontColor=default;labelBackgroundColor=default;endArrow=open;endFill=1;" edge="1" parent="2" source="fmrXJPgdN7vuYu7WS9ce-86" target="fmrXJPgdN7vuYu7WS9ce-123">
          <mxGeometry relative="1" as="geometry" />
        </mxCell>
        <mxCell id="fmrXJPgdN7vuYu7WS9ce-86" value="Get message text/files" style="html=1;dashed=0;whiteSpace=wrap;fontFamily=Helvetica;fontSize=11;fontColor=default;labelBackgroundColor=default;" vertex="1" parent="2">
          <mxGeometry x="170" y="1040" width="100" height="50" as="geometry" />
        </mxCell>
        <mxCell id="fmrXJPgdN7vuYu7WS9ce-92" value="Ring team members" style="html=1;dashed=0;whiteSpace=wrap;fontFamily=Helvetica;fontSize=11;fontColor=default;labelBackgroundColor=default;" vertex="1" parent="2">
          <mxGeometry x="325" y="1015.5" width="100" height="50" as="geometry" />
        </mxCell>
        <mxCell id="fmrXJPgdN7vuYu7WS9ce-108" value="&lt;div&gt;Perform database&lt;/div&gt;&lt;div&gt;query for message&lt;/div&gt;" style="html=1;dashed=0;whiteSpace=wrap;fontFamily=Helvetica;fontSize=11;fontColor=default;labelBackgroundColor=default;" vertex="1" parent="2">
          <mxGeometry x="50" y="860" width="100" height="50" as="geometry" />
        </mxCell>
        <mxCell id="fmrXJPgdN7vuYu7WS9ce-115" value="" style="rounded=0;orthogonalLoop=1;jettySize=auto;html=1;exitX=0.5;exitY=1;exitDx=0;exitDy=0;entryX=0.492;entryY=0.1;entryDx=0;entryDy=0;strokeColor=#FF0000;align=center;verticalAlign=middle;fontFamily=Helvetica;fontSize=11;fontColor=default;labelBackgroundColor=default;endArrow=open;endFill=1;entryPerimeter=0;" edge="1" parent="2" source="fmrXJPgdN7vuYu7WS9ce-76" target="fmrXJPgdN7vuYu7WS9ce-113">
          <mxGeometry relative="1" as="geometry">
            <mxPoint x="515" y="895" as="sourcePoint" />
            <mxPoint x="375" y="840" as="targetPoint" />
          </mxGeometry>
        </mxCell>
        <mxCell id="fmrXJPgdN7vuYu7WS9ce-121" style="edgeStyle=orthogonalEdgeStyle;shape=connector;rounded=0;orthogonalLoop=1;jettySize=auto;html=1;exitX=0.25;exitY=0.5;exitDx=0;exitDy=0;exitPerimeter=0;entryX=0.5;entryY=0;entryDx=0;entryDy=0;strokeColor=#FF0000;align=center;verticalAlign=middle;fontFamily=Helvetica;fontSize=11;fontColor=default;labelBackgroundColor=default;endArrow=open;endFill=1;" edge="1" parent="2" source="fmrXJPgdN7vuYu7WS9ce-113" target="fmrXJPgdN7vuYu7WS9ce-116">
          <mxGeometry relative="1" as="geometry">
            <Array as="points">
              <mxPoint x="344" y="930" />
              <mxPoint x="220" y="930" />
            </Array>
          </mxGeometry>
        </mxCell>
        <mxCell id="fmrXJPgdN7vuYu7WS9ce-137" style="edgeStyle=orthogonalEdgeStyle;shape=connector;rounded=0;orthogonalLoop=1;jettySize=auto;html=1;exitX=0.75;exitY=0.5;exitDx=0;exitDy=0;exitPerimeter=0;entryX=0.5;entryY=0;entryDx=0;entryDy=0;strokeColor=#FF0000;align=center;verticalAlign=middle;fontFamily=Helvetica;fontSize=11;fontColor=default;labelBackgroundColor=default;endArrow=open;endFill=1;" edge="1" parent="2" source="fmrXJPgdN7vuYu7WS9ce-113" target="fmrXJPgdN7vuYu7WS9ce-132">
          <mxGeometry relative="1" as="geometry">
            <Array as="points">
              <mxPoint x="406" y="890" />
              <mxPoint x="510" y="890" />
            </Array>
          </mxGeometry>
        </mxCell>
        <mxCell id="fmrXJPgdN7vuYu7WS9ce-149" value="" style="edgeStyle=orthogonalEdgeStyle;shape=connector;rounded=0;orthogonalLoop=1;jettySize=auto;html=1;strokeColor=#FF0000;align=center;verticalAlign=middle;fontFamily=Helvetica;fontSize=11;fontColor=default;labelBackgroundColor=default;endArrow=open;endFill=1;exitX=0.496;exitY=0.502;exitDx=0;exitDy=0;exitPerimeter=0;" edge="1" parent="2" source="fmrXJPgdN7vuYu7WS9ce-113" target="fmrXJPgdN7vuYu7WS9ce-119">
          <mxGeometry relative="1" as="geometry" />
        </mxCell>
        <mxCell id="fmrXJPgdN7vuYu7WS9ce-160" style="edgeStyle=orthogonalEdgeStyle;shape=connector;rounded=0;orthogonalLoop=1;jettySize=auto;html=1;exitX=1;exitY=0.5;exitDx=0;exitDy=0;exitPerimeter=0;entryX=0.5;entryY=0;entryDx=0;entryDy=0;strokeColor=#FF0000;align=center;verticalAlign=middle;fontFamily=Helvetica;fontSize=11;fontColor=default;labelBackgroundColor=default;endArrow=open;endFill=1;" edge="1" parent="2" source="fmrXJPgdN7vuYu7WS9ce-113" target="fmrXJPgdN7vuYu7WS9ce-157">
          <mxGeometry relative="1" as="geometry" />
        </mxCell>
        <mxCell id="fmrXJPgdN7vuYu7WS9ce-113" value="" style="shape=line;html=1;strokeWidth=6;strokeColor=#ff0000;fontFamily=Helvetica;fontSize=11;fontColor=default;labelBackgroundColor=default;" vertex="1" parent="2">
          <mxGeometry x="312.5" y="835" width="125" height="10" as="geometry" />
        </mxCell>
        <mxCell id="fmrXJPgdN7vuYu7WS9ce-117" style="edgeStyle=orthogonalEdgeStyle;shape=connector;rounded=0;orthogonalLoop=1;jettySize=auto;html=1;exitX=0.5;exitY=1;exitDx=0;exitDy=0;entryX=0.5;entryY=0;entryDx=0;entryDy=0;strokeColor=#FF0000;align=center;verticalAlign=middle;fontFamily=Helvetica;fontSize=11;fontColor=default;labelBackgroundColor=default;endArrow=open;endFill=1;" edge="1" parent="2" source="fmrXJPgdN7vuYu7WS9ce-116" target="fmrXJPgdN7vuYu7WS9ce-86">
          <mxGeometry relative="1" as="geometry" />
        </mxCell>
        <mxCell id="fmrXJPgdN7vuYu7WS9ce-116" value="Send Message" style="html=1;dashed=0;whiteSpace=wrap;fontFamily=Helvetica;fontSize=11;fontColor=default;labelBackgroundColor=default;" vertex="1" parent="2">
          <mxGeometry x="170" y="950" width="100" height="50" as="geometry" />
        </mxCell>
        <mxCell id="fmrXJPgdN7vuYu7WS9ce-120" style="edgeStyle=orthogonalEdgeStyle;shape=connector;rounded=0;orthogonalLoop=1;jettySize=auto;html=1;exitX=0.5;exitY=1;exitDx=0;exitDy=0;entryX=0.5;entryY=0;entryDx=0;entryDy=0;strokeColor=#FF0000;align=center;verticalAlign=middle;fontFamily=Helvetica;fontSize=11;fontColor=default;labelBackgroundColor=default;endArrow=open;endFill=1;" edge="1" parent="2" source="fmrXJPgdN7vuYu7WS9ce-119" target="fmrXJPgdN7vuYu7WS9ce-92">
          <mxGeometry relative="1" as="geometry" />
        </mxCell>
        <mxCell id="fmrXJPgdN7vuYu7WS9ce-119" value="Start call" style="html=1;dashed=0;whiteSpace=wrap;fontFamily=Helvetica;fontSize=11;fontColor=default;labelBackgroundColor=default;" vertex="1" parent="2">
          <mxGeometry x="325" y="940" width="100" height="50" as="geometry" />
        </mxCell>
        <mxCell id="fmrXJPgdN7vuYu7WS9ce-123" value="Display new message in chat" style="html=1;dashed=0;whiteSpace=wrap;fontFamily=Helvetica;fontSize=11;fontColor=default;labelBackgroundColor=default;" vertex="1" parent="2">
          <mxGeometry x="165" y="1109" width="100" height="50" as="geometry" />
        </mxCell>
        <mxCell id="fmrXJPgdN7vuYu7WS9ce-125" value="" style="edgeStyle=orthogonalEdgeStyle;shape=connector;rounded=0;orthogonalLoop=1;jettySize=auto;html=1;exitX=0.5;exitY=1;exitDx=0;exitDy=0;entryX=0.5;entryY=0;entryDx=0;entryDy=0;strokeColor=#FF0000;align=center;verticalAlign=middle;fontFamily=Helvetica;fontSize=11;fontColor=default;labelBackgroundColor=default;endArrow=open;endFill=1;" edge="1" parent="2" source="fmrXJPgdN7vuYu7WS9ce-92" target="fmrXJPgdN7vuYu7WS9ce-126">
          <mxGeometry relative="1" as="geometry">
            <mxPoint x="510" y="1175.5" as="sourcePoint" />
            <mxPoint x="585" y="1269.5" as="targetPoint" />
          </mxGeometry>
        </mxCell>
        <mxCell id="fmrXJPgdN7vuYu7WS9ce-126" value="Show call in chat" style="html=1;dashed=0;whiteSpace=wrap;fontFamily=Helvetica;fontSize=11;fontColor=default;labelBackgroundColor=default;" vertex="1" parent="2">
          <mxGeometry x="325" y="1090" width="100" height="50" as="geometry" />
        </mxCell>
        <mxCell id="fmrXJPgdN7vuYu7WS9ce-131" style="edgeStyle=orthogonalEdgeStyle;shape=connector;rounded=0;orthogonalLoop=1;jettySize=auto;html=1;exitX=0;exitY=0.5;exitDx=0;exitDy=0;entryX=1;entryY=0.5;entryDx=0;entryDy=0;strokeColor=#FF0000;align=center;verticalAlign=middle;fontFamily=Helvetica;fontSize=11;fontColor=default;labelBackgroundColor=default;endArrow=open;endFill=1;" edge="1" parent="2" source="fmrXJPgdN7vuYu7WS9ce-130" target="fmrXJPgdN7vuYu7WS9ce-108">
          <mxGeometry relative="1" as="geometry" />
        </mxCell>
        <mxCell id="fmrXJPgdN7vuYu7WS9ce-130" value="Search messages" style="html=1;dashed=0;whiteSpace=wrap;fontFamily=Helvetica;fontSize=11;fontColor=default;labelBackgroundColor=default;" vertex="1" parent="2">
          <mxGeometry x="180" y="860" width="100" height="50" as="geometry" />
        </mxCell>
        <mxCell id="fmrXJPgdN7vuYu7WS9ce-135" style="edgeStyle=orthogonalEdgeStyle;shape=connector;rounded=0;orthogonalLoop=1;jettySize=auto;html=1;exitX=0.5;exitY=1;exitDx=0;exitDy=0;entryX=0.5;entryY=0;entryDx=0;entryDy=0;strokeColor=#FF0000;align=center;verticalAlign=middle;fontFamily=Helvetica;fontSize=11;fontColor=default;labelBackgroundColor=default;endArrow=open;endFill=1;" edge="1" parent="2" source="fmrXJPgdN7vuYu7WS9ce-132" target="fmrXJPgdN7vuYu7WS9ce-133">
          <mxGeometry relative="1" as="geometry" />
        </mxCell>
        <mxCell id="fmrXJPgdN7vuYu7WS9ce-132" value="Delete message" style="html=1;dashed=0;whiteSpace=wrap;fontFamily=Helvetica;fontSize=11;fontColor=default;labelBackgroundColor=default;" vertex="1" parent="2">
          <mxGeometry x="460" y="940" width="100" height="50" as="geometry" />
        </mxCell>
        <mxCell id="fmrXJPgdN7vuYu7WS9ce-133" value="Remove selected message from chat" style="html=1;dashed=0;whiteSpace=wrap;fontFamily=Helvetica;fontSize=11;fontColor=default;labelBackgroundColor=default;" vertex="1" parent="2">
          <mxGeometry x="460" y="1016" width="100" height="50" as="geometry" />
        </mxCell>
        <mxCell id="fmrXJPgdN7vuYu7WS9ce-140" value="" style="shape=line;html=1;strokeWidth=6;strokeColor=#ff0000;fontFamily=Helvetica;fontSize=11;fontColor=default;labelBackgroundColor=default;" vertex="1" parent="2">
          <mxGeometry x="312.5" y="1200" width="125" height="10" as="geometry" />
        </mxCell>
        <mxCell id="fmrXJPgdN7vuYu7WS9ce-144" style="edgeStyle=orthogonalEdgeStyle;shape=connector;rounded=0;orthogonalLoop=1;jettySize=auto;html=1;exitX=0.5;exitY=1;exitDx=0;exitDy=0;entryX=0.25;entryY=0.5;entryDx=0;entryDy=0;entryPerimeter=0;strokeColor=#FF0000;align=center;verticalAlign=middle;fontFamily=Helvetica;fontSize=11;fontColor=default;labelBackgroundColor=default;endArrow=open;endFill=1;" edge="1" parent="2" source="fmrXJPgdN7vuYu7WS9ce-123" target="fmrXJPgdN7vuYu7WS9ce-140">
          <mxGeometry relative="1" as="geometry" />
        </mxCell>
        <mxCell id="fmrXJPgdN7vuYu7WS9ce-145" style="edgeStyle=orthogonalEdgeStyle;shape=connector;rounded=0;orthogonalLoop=1;jettySize=auto;html=1;exitX=0.5;exitY=1;exitDx=0;exitDy=0;entryX=0;entryY=0.5;entryDx=0;entryDy=0;entryPerimeter=0;strokeColor=#FF0000;align=center;verticalAlign=middle;fontFamily=Helvetica;fontSize=11;fontColor=default;labelBackgroundColor=default;endArrow=open;endFill=1;" edge="1" parent="2" source="fmrXJPgdN7vuYu7WS9ce-108" target="fmrXJPgdN7vuYu7WS9ce-140">
          <mxGeometry relative="1" as="geometry" />
        </mxCell>
        <mxCell id="fmrXJPgdN7vuYu7WS9ce-147" style="edgeStyle=orthogonalEdgeStyle;shape=connector;rounded=0;orthogonalLoop=1;jettySize=auto;html=1;exitX=0.5;exitY=1;exitDx=0;exitDy=0;entryX=0.75;entryY=0.5;entryDx=0;entryDy=0;entryPerimeter=0;strokeColor=#FF0000;align=center;verticalAlign=middle;fontFamily=Helvetica;fontSize=11;fontColor=default;labelBackgroundColor=default;endArrow=open;endFill=1;" edge="1" parent="2" source="fmrXJPgdN7vuYu7WS9ce-133" target="fmrXJPgdN7vuYu7WS9ce-140">
          <mxGeometry relative="1" as="geometry">
            <Array as="points">
              <mxPoint x="510" y="1150" />
              <mxPoint x="406" y="1150" />
            </Array>
          </mxGeometry>
        </mxCell>
        <mxCell id="fmrXJPgdN7vuYu7WS9ce-150" style="edgeStyle=orthogonalEdgeStyle;shape=connector;rounded=0;orthogonalLoop=1;jettySize=auto;html=1;exitX=0.5;exitY=1;exitDx=0;exitDy=0;entryX=0.498;entryY=0.6;entryDx=0;entryDy=0;entryPerimeter=0;strokeColor=#FF0000;align=center;verticalAlign=middle;fontFamily=Helvetica;fontSize=11;fontColor=default;labelBackgroundColor=default;endArrow=open;endFill=1;" edge="1" parent="2" source="fmrXJPgdN7vuYu7WS9ce-126" target="fmrXJPgdN7vuYu7WS9ce-140">
          <mxGeometry relative="1" as="geometry" />
        </mxCell>
        <mxCell id="fmrXJPgdN7vuYu7WS9ce-151" style="edgeStyle=orthogonalEdgeStyle;shape=connector;rounded=0;orthogonalLoop=1;jettySize=auto;html=1;exitX=0.475;exitY=0.6;exitDx=0;exitDy=0;entryX=0.5;entryY=0;entryDx=0;entryDy=0;strokeColor=#FF0000;align=center;verticalAlign=middle;fontFamily=Helvetica;fontSize=11;fontColor=default;labelBackgroundColor=default;endArrow=open;endFill=1;exitPerimeter=0;" edge="1" parent="2" source="fmrXJPgdN7vuYu7WS9ce-140" target="fmrXJPgdN7vuYu7WS9ce-84">
          <mxGeometry relative="1" as="geometry">
            <mxPoint x="385" y="1150" as="sourcePoint" />
            <mxPoint x="385" y="1216" as="targetPoint" />
          </mxGeometry>
        </mxCell>
        <mxCell id="fmrXJPgdN7vuYu7WS9ce-161" style="edgeStyle=orthogonalEdgeStyle;shape=connector;rounded=0;orthogonalLoop=1;jettySize=auto;html=1;exitX=0.5;exitY=1;exitDx=0;exitDy=0;entryX=0.5;entryY=0;entryDx=0;entryDy=0;strokeColor=#FF0000;align=center;verticalAlign=middle;fontFamily=Helvetica;fontSize=11;fontColor=default;labelBackgroundColor=default;endArrow=open;endFill=1;" edge="1" parent="2" source="fmrXJPgdN7vuYu7WS9ce-157" target="fmrXJPgdN7vuYu7WS9ce-158">
          <mxGeometry relative="1" as="geometry" />
        </mxCell>
        <mxCell id="fmrXJPgdN7vuYu7WS9ce-157" value="Show availability" style="html=1;dashed=0;whiteSpace=wrap;fontFamily=Helvetica;fontSize=11;fontColor=default;labelBackgroundColor=default;" vertex="1" parent="2">
          <mxGeometry x="600" y="940" width="100" height="50" as="geometry" />
        </mxCell>
        <mxCell id="fmrXJPgdN7vuYu7WS9ce-163" value="" style="edgeStyle=orthogonalEdgeStyle;shape=connector;rounded=0;orthogonalLoop=1;jettySize=auto;html=1;strokeColor=#FF0000;align=center;verticalAlign=middle;fontFamily=Helvetica;fontSize=11;fontColor=default;labelBackgroundColor=default;endArrow=open;endFill=1;" edge="1" parent="2" source="fmrXJPgdN7vuYu7WS9ce-158" target="fmrXJPgdN7vuYu7WS9ce-159">
          <mxGeometry relative="1" as="geometry" />
        </mxCell>
        <mxCell id="fmrXJPgdN7vuYu7WS9ce-158" value="Pull team members&#39; availability data from database" style="html=1;dashed=0;whiteSpace=wrap;fontFamily=Helvetica;fontSize=11;fontColor=default;labelBackgroundColor=default;" vertex="1" parent="2">
          <mxGeometry x="600" y="1015.5" width="100" height="50" as="geometry" />
        </mxCell>
        <mxCell id="fmrXJPgdN7vuYu7WS9ce-159" value="Suggest optimal meeting times" style="html=1;dashed=0;whiteSpace=wrap;fontFamily=Helvetica;fontSize=11;fontColor=default;labelBackgroundColor=default;" vertex="1" parent="2">
          <mxGeometry x="600" y="1090" width="100" height="50" as="geometry" />
        </mxCell>
        <mxCell id="fmrXJPgdN7vuYu7WS9ce-164" style="edgeStyle=orthogonalEdgeStyle;shape=connector;rounded=0;orthogonalLoop=1;jettySize=auto;html=1;exitX=0.5;exitY=1;exitDx=0;exitDy=0;entryX=1;entryY=0.5;entryDx=0;entryDy=0;entryPerimeter=0;strokeColor=#FF0000;align=center;verticalAlign=middle;fontFamily=Helvetica;fontSize=11;fontColor=default;labelBackgroundColor=default;endArrow=open;endFill=1;" edge="1" parent="2" source="fmrXJPgdN7vuYu7WS9ce-159" target="fmrXJPgdN7vuYu7WS9ce-140">
          <mxGeometry relative="1" as="geometry" />
        </mxCell>
        <mxCell id="fmrXJPgdN7vuYu7WS9ce-167" style="edgeStyle=orthogonalEdgeStyle;shape=connector;rounded=0;orthogonalLoop=1;jettySize=auto;html=1;exitX=0.5;exitY=1;exitDx=0;exitDy=0;entryX=0.5;entryY=0;entryDx=0;entryDy=0;strokeColor=#FF0000;align=center;verticalAlign=middle;fontFamily=Helvetica;fontSize=11;fontColor=default;labelBackgroundColor=default;endArrow=open;endFill=1;" edge="1" parent="2" source="fmrXJPgdN7vuYu7WS9ce-165" target="38">
          <mxGeometry relative="1" as="geometry" />
        </mxCell>
        <mxCell id="fmrXJPgdN7vuYu7WS9ce-168" value="Yes" style="edgeLabel;html=1;align=center;verticalAlign=middle;resizable=0;points=[];fontFamily=Helvetica;fontSize=11;fontColor=default;labelBackgroundColor=default;" vertex="1" connectable="0" parent="fmrXJPgdN7vuYu7WS9ce-167">
          <mxGeometry x="-0.2" y="2" relative="1" as="geometry">
            <mxPoint as="offset" />
          </mxGeometry>
        </mxCell>
        <mxCell id="fmrXJPgdN7vuYu7WS9ce-169" style="edgeStyle=orthogonalEdgeStyle;shape=connector;rounded=0;orthogonalLoop=1;jettySize=auto;html=1;exitX=1;exitY=0.5;exitDx=0;exitDy=0;entryX=1;entryY=0.5;entryDx=0;entryDy=0;strokeColor=#FF0000;align=center;verticalAlign=middle;fontFamily=Helvetica;fontSize=11;fontColor=default;labelBackgroundColor=default;endArrow=open;endFill=1;" edge="1" parent="2" source="fmrXJPgdN7vuYu7WS9ce-165" target="fmrXJPgdN7vuYu7WS9ce-76">
          <mxGeometry relative="1" as="geometry">
            <Array as="points">
              <mxPoint x="760" y="1345" />
              <mxPoint x="760" y="800" />
            </Array>
          </mxGeometry>
        </mxCell>
        <mxCell id="fmrXJPgdN7vuYu7WS9ce-170" value="No" style="edgeLabel;html=1;align=center;verticalAlign=middle;resizable=0;points=[];fontFamily=Helvetica;fontSize=11;fontColor=default;labelBackgroundColor=default;" vertex="1" connectable="0" parent="fmrXJPgdN7vuYu7WS9ce-169">
          <mxGeometry x="-0.9805" y="-3" relative="1" as="geometry">
            <mxPoint as="offset" />
          </mxGeometry>
        </mxCell>
        <mxCell id="fmrXJPgdN7vuYu7WS9ce-165" value="Exit chat?" style="rhombus;whiteSpace=wrap;html=1;fontFamily=Helvetica;fontSize=11;fontColor=default;labelBackgroundColor=default;" vertex="1" parent="2">
          <mxGeometry x="340" y="1310" width="70" height="70" as="geometry" />
        </mxCell>
      </root>
    </mxGraphModel>
  </diagram>
</mxfile>
